<mxfile host="app.diagrams.net" modified="2023-05-09T18:08:21.081Z" agent="Mozilla/5.0 (Macintosh; Intel Mac OS X 10_15_7) AppleWebKit/537.36 (KHTML, like Gecko) Chrome/112.0.0.0 Safari/537.36" etag="5x_6IXNLuMpv26Kmfzb9" version="21.2.9" type="github">
  <diagram name="Page-1" id="8UPeFdMl0vFz5VUTd74H">
    <mxGraphModel dx="1363" dy="777" grid="1" gridSize="10" guides="1" tooltips="1" connect="1" arrows="1" fold="1" page="1" pageScale="1" pageWidth="1654" pageHeight="1169" math="0" shadow="0">
      <root>
        <mxCell id="0" />
        <mxCell id="1" parent="0" />
        <mxCell id="MEHSV4zgcUvzOmV2rdXF-19" style="edgeStyle=orthogonalEdgeStyle;rounded=0;orthogonalLoop=1;jettySize=auto;html=1;" parent="1" source="MEHSV4zgcUvzOmV2rdXF-21" target="MEHSV4zgcUvzOmV2rdXF-23" edge="1">
          <mxGeometry relative="1" as="geometry" />
        </mxCell>
        <mxCell id="MEHSV4zgcUvzOmV2rdXF-20" style="edgeStyle=orthogonalEdgeStyle;rounded=0;orthogonalLoop=1;jettySize=auto;html=1;entryX=0;entryY=0.524;entryDx=0;entryDy=0;entryPerimeter=0;" parent="1" source="MEHSV4zgcUvzOmV2rdXF-21" target="MEHSV4zgcUvzOmV2rdXF-22" edge="1">
          <mxGeometry relative="1" as="geometry" />
        </mxCell>
        <mxCell id="MEHSV4zgcUvzOmV2rdXF-21" value="Master" style="image;sketch=0;aspect=fixed;html=1;points=[];align=center;fontSize=12;image=img/lib/mscae/Cache_Redis_Product.svg;" parent="1" vertex="1">
          <mxGeometry x="290" y="270" width="50" height="42" as="geometry" />
        </mxCell>
        <mxCell id="MEHSV4zgcUvzOmV2rdXF-22" value="Read-Only Replica" style="image;sketch=0;aspect=fixed;html=1;points=[];align=center;fontSize=12;image=img/lib/mscae/Cache_Redis_Product.svg;" parent="1" vertex="1">
          <mxGeometry x="470" y="150" width="50" height="42" as="geometry" />
        </mxCell>
        <mxCell id="MEHSV4zgcUvzOmV2rdXF-23" value="Read-Only Replica" style="image;sketch=0;aspect=fixed;html=1;points=[];align=center;fontSize=12;image=img/lib/mscae/Cache_Redis_Product.svg;" parent="1" vertex="1">
          <mxGeometry x="470" y="270" width="50" height="42" as="geometry" />
        </mxCell>
        <mxCell id="MEHSV4zgcUvzOmV2rdXF-24" value="Replica&lt;br&gt;(Backup)" style="image;sketch=0;aspect=fixed;html=1;points=[];align=center;fontSize=12;image=img/lib/mscae/Cache_Redis_Product.svg;" parent="1" vertex="1">
          <mxGeometry x="100" y="162" width="50" height="42" as="geometry" />
        </mxCell>
        <mxCell id="MEHSV4zgcUvzOmV2rdXF-25" value="" style="image;sketch=0;aspect=fixed;html=1;points=[];align=center;fontSize=12;image=img/lib/mscae/Docker.svg;" parent="1" vertex="1">
          <mxGeometry x="390" y="110" width="50" height="41" as="geometry" />
        </mxCell>
        <mxCell id="MEHSV4zgcUvzOmV2rdXF-26" value="" style="image;sketch=0;aspect=fixed;html=1;points=[];align=center;fontSize=12;image=img/lib/mscae/Docker.svg;" parent="1" vertex="1">
          <mxGeometry x="40" y="102" width="50" height="41" as="geometry" />
        </mxCell>
        <mxCell id="MEHSV4zgcUvzOmV2rdXF-27" value="" style="image;sketch=0;aspect=fixed;html=1;points=[];align=center;fontSize=12;image=img/lib/mscae/Docker.svg;" parent="1" vertex="1">
          <mxGeometry x="290" y="210" width="50" height="41" as="geometry" />
        </mxCell>
        <mxCell id="MEHSV4zgcUvzOmV2rdXF-28" value="" style="image;sketch=0;aspect=fixed;html=1;points=[];align=center;fontSize=12;image=img/lib/mscae/Docker.svg;" parent="1" vertex="1">
          <mxGeometry x="380" y="340" width="50" height="41" as="geometry" />
        </mxCell>
        <mxCell id="MEHSV4zgcUvzOmV2rdXF-29" value="" style="rounded=0;whiteSpace=wrap;html=1;fillColor=none;strokeWidth=5;" parent="1" vertex="1">
          <mxGeometry x="380" y="100" width="200" height="130" as="geometry" />
        </mxCell>
        <mxCell id="MEHSV4zgcUvzOmV2rdXF-30" value="" style="rounded=0;whiteSpace=wrap;html=1;fillColor=none;strokeWidth=5;" parent="1" vertex="1">
          <mxGeometry x="370" y="260" width="200" height="130" as="geometry" />
        </mxCell>
        <mxCell id="Ju0tz5VagtQAyM3Ogj2z-4" style="edgeStyle=orthogonalEdgeStyle;rounded=0;orthogonalLoop=1;jettySize=auto;html=1;entryX=1.007;entryY=0.464;entryDx=0;entryDy=0;entryPerimeter=0;" edge="1" parent="1" source="MEHSV4zgcUvzOmV2rdXF-31" target="MEHSV4zgcUvzOmV2rdXF-32">
          <mxGeometry relative="1" as="geometry" />
        </mxCell>
        <mxCell id="MEHSV4zgcUvzOmV2rdXF-31" value="" style="rounded=0;whiteSpace=wrap;html=1;fillColor=none;strokeWidth=5;" parent="1" vertex="1">
          <mxGeometry x="270" y="202" width="90" height="148" as="geometry" />
        </mxCell>
        <mxCell id="MEHSV4zgcUvzOmV2rdXF-32" value="" style="rounded=0;whiteSpace=wrap;html=1;fillColor=none;strokeWidth=5;" parent="1" vertex="1">
          <mxGeometry x="30" y="87" width="150" height="168" as="geometry" />
        </mxCell>
        <mxCell id="MEHSV4zgcUvzOmV2rdXF-33" value="Kubernetes Proxy" style="sketch=0;html=1;dashed=0;whitespace=wrap;fillColor=#2875E2;strokeColor=#ffffff;points=[[0.005,0.63,0],[0.1,0.2,0],[0.9,0.2,0],[0.5,0,0],[0.995,0.63,0],[0.72,0.99,0],[0.5,1,0],[0.28,0.99,0]];verticalLabelPosition=bottom;align=center;verticalAlign=top;shape=mxgraph.kubernetes.icon;prIcon=k_proxy" parent="1" vertex="1">
          <mxGeometry x="690" y="252" width="50" height="48" as="geometry" />
        </mxCell>
        <mxCell id="MEHSV4zgcUvzOmV2rdXF-67" style="edgeStyle=orthogonalEdgeStyle;rounded=0;orthogonalLoop=1;jettySize=auto;html=1;entryX=0.5;entryY=1;entryDx=0;entryDy=0;" parent="1" source="MEHSV4zgcUvzOmV2rdXF-38" target="MEHSV4zgcUvzOmV2rdXF-66" edge="1">
          <mxGeometry relative="1" as="geometry" />
        </mxCell>
        <mxCell id="MEHSV4zgcUvzOmV2rdXF-38" value="&lt;font color=&quot;#ff33ff&quot;&gt;FFMPEG Server&lt;/font&gt;" style="image;points=[];aspect=fixed;html=1;align=center;shadow=0;dashed=0;image=img/lib/allied_telesis/computer_and_terminals/Server_Desktop.svg;" parent="1" vertex="1">
          <mxGeometry x="1550" y="930" width="52.07" height="66" as="geometry" />
        </mxCell>
        <mxCell id="MEHSV4zgcUvzOmV2rdXF-70" style="edgeStyle=orthogonalEdgeStyle;rounded=0;orthogonalLoop=1;jettySize=auto;html=1;entryX=-0.027;entryY=0.348;entryDx=0;entryDy=0;entryPerimeter=0;" parent="1" source="MEHSV4zgcUvzOmV2rdXF-40" target="MEHSV4zgcUvzOmV2rdXF-38" edge="1">
          <mxGeometry relative="1" as="geometry">
            <Array as="points">
              <mxPoint x="1285" y="953" />
            </Array>
          </mxGeometry>
        </mxCell>
        <mxCell id="MEHSV4zgcUvzOmV2rdXF-40" value="" style="fontColor=#0066CC;verticalAlign=top;verticalLabelPosition=bottom;labelPosition=center;align=center;html=1;outlineConnect=0;fillColor=#CCCCCC;strokeColor=#6881B3;gradientColor=none;gradientDirection=north;strokeWidth=2;shape=mxgraph.networks.security_camera;" parent="1" vertex="1">
          <mxGeometry x="1260" y="1094" width="50" height="40" as="geometry" />
        </mxCell>
        <mxCell id="MEHSV4zgcUvzOmV2rdXF-71" style="edgeStyle=orthogonalEdgeStyle;rounded=0;orthogonalLoop=1;jettySize=auto;html=1;" parent="1" source="MEHSV4zgcUvzOmV2rdXF-58" edge="1">
          <mxGeometry relative="1" as="geometry">
            <mxPoint x="1540" y="950" as="targetPoint" />
            <Array as="points">
              <mxPoint x="1230" y="950" />
            </Array>
          </mxGeometry>
        </mxCell>
        <mxCell id="MEHSV4zgcUvzOmV2rdXF-58" value="" style="fontColor=#0066CC;verticalAlign=top;verticalLabelPosition=bottom;labelPosition=center;align=center;html=1;outlineConnect=0;fillColor=#CCCCCC;strokeColor=#6881B3;gradientColor=none;gradientDirection=north;strokeWidth=2;shape=mxgraph.networks.security_camera;" parent="1" vertex="1">
          <mxGeometry x="1200" y="1094" width="50" height="40" as="geometry" />
        </mxCell>
        <mxCell id="MEHSV4zgcUvzOmV2rdXF-69" style="edgeStyle=orthogonalEdgeStyle;rounded=0;orthogonalLoop=1;jettySize=auto;html=1;entryX=-0.005;entryY=0.383;entryDx=0;entryDy=0;entryPerimeter=0;" parent="1" source="MEHSV4zgcUvzOmV2rdXF-59" target="MEHSV4zgcUvzOmV2rdXF-38" edge="1">
          <mxGeometry relative="1" as="geometry">
            <Array as="points">
              <mxPoint x="1350" y="955" />
            </Array>
          </mxGeometry>
        </mxCell>
        <mxCell id="MEHSV4zgcUvzOmV2rdXF-59" value="" style="fontColor=#0066CC;verticalAlign=top;verticalLabelPosition=bottom;labelPosition=center;align=center;html=1;outlineConnect=0;fillColor=#CCCCCC;strokeColor=#6881B3;gradientColor=none;gradientDirection=north;strokeWidth=2;shape=mxgraph.networks.security_camera;" parent="1" vertex="1">
          <mxGeometry x="1320" y="1094" width="50" height="40" as="geometry" />
        </mxCell>
        <mxCell id="MEHSV4zgcUvzOmV2rdXF-68" style="edgeStyle=orthogonalEdgeStyle;rounded=0;orthogonalLoop=1;jettySize=auto;html=1;entryX=-0.005;entryY=0.383;entryDx=0;entryDy=0;entryPerimeter=0;" parent="1" source="MEHSV4zgcUvzOmV2rdXF-60" target="MEHSV4zgcUvzOmV2rdXF-38" edge="1">
          <mxGeometry relative="1" as="geometry">
            <Array as="points">
              <mxPoint x="1410" y="955" />
            </Array>
          </mxGeometry>
        </mxCell>
        <mxCell id="MEHSV4zgcUvzOmV2rdXF-60" value="" style="fontColor=#0066CC;verticalAlign=top;verticalLabelPosition=bottom;labelPosition=center;align=center;html=1;outlineConnect=0;fillColor=#CCCCCC;strokeColor=#6881B3;gradientColor=none;gradientDirection=north;strokeWidth=2;shape=mxgraph.networks.security_camera;" parent="1" vertex="1">
          <mxGeometry x="1380" y="1094" width="50" height="40" as="geometry" />
        </mxCell>
        <mxCell id="MEHSV4zgcUvzOmV2rdXF-66" value="OPNSense" style="image;html=1;image=img/lib/clip_art/networking/Router_Icon_128x128.png" parent="1" vertex="1">
          <mxGeometry x="1550" y="780" width="80" height="80" as="geometry" />
        </mxCell>
        <mxCell id="MEHSV4zgcUvzOmV2rdXF-72" value="" style="image;sketch=0;aspect=fixed;html=1;points=[];align=center;fontSize=12;image=img/lib/mscae/Docker.svg;" parent="1" vertex="1">
          <mxGeometry x="1550" y="1030" width="50" height="41" as="geometry" />
        </mxCell>
        <mxCell id="MEHSV4zgcUvzOmV2rdXF-75" value="Database Server" style="text;html=1;strokeColor=none;fillColor=none;align=center;verticalAlign=middle;whiteSpace=wrap;rounded=0;fontSize=24;" parent="1" vertex="1">
          <mxGeometry x="270" y="370" width="60" height="30" as="geometry" />
        </mxCell>
        <mxCell id="MEHSV4zgcUvzOmV2rdXF-76" value="Web Server" style="image;points=[];aspect=fixed;html=1;align=center;shadow=0;dashed=0;image=img/lib/allied_telesis/computer_and_terminals/Server_Desktop.svg;" parent="1" vertex="1">
          <mxGeometry x="230" y="519" width="52.07" height="66" as="geometry" />
        </mxCell>
        <mxCell id="MEHSV4zgcUvzOmV2rdXF-78" value="Video Server" style="image;points=[];aspect=fixed;html=1;align=center;shadow=0;dashed=0;image=img/lib/allied_telesis/computer_and_terminals/Server_Desktop.svg;" parent="1" vertex="1">
          <mxGeometry x="810" y="381" width="52.07" height="66" as="geometry" />
        </mxCell>
        <mxCell id="MEHSV4zgcUvzOmV2rdXF-81" style="edgeStyle=orthogonalEdgeStyle;rounded=0;orthogonalLoop=1;jettySize=auto;html=1;" parent="1" source="MEHSV4zgcUvzOmV2rdXF-79" target="MEHSV4zgcUvzOmV2rdXF-76" edge="1">
          <mxGeometry relative="1" as="geometry" />
        </mxCell>
        <mxCell id="MEHSV4zgcUvzOmV2rdXF-83" style="edgeStyle=orthogonalEdgeStyle;rounded=0;orthogonalLoop=1;jettySize=auto;html=1;" parent="1" source="MEHSV4zgcUvzOmV2rdXF-79" target="MEHSV4zgcUvzOmV2rdXF-82" edge="1">
          <mxGeometry relative="1" as="geometry" />
        </mxCell>
        <mxCell id="MEHSV4zgcUvzOmV2rdXF-79" value="Nginx Revese&lt;br&gt;Proxy" style="sketch=0;pointerEvents=1;shadow=0;dashed=0;html=1;strokeColor=none;fillColor=#505050;labelPosition=center;verticalLabelPosition=bottom;verticalAlign=top;outlineConnect=0;align=center;shape=mxgraph.office.servers.reverse_proxy;" parent="1" vertex="1">
          <mxGeometry x="319" y="727" width="41" height="53" as="geometry" />
        </mxCell>
        <mxCell id="MEHSV4zgcUvzOmV2rdXF-80" value="Photo/Video Server Analyzed" style="image;points=[];aspect=fixed;html=1;align=center;shadow=0;dashed=0;image=img/lib/allied_telesis/computer_and_terminals/Server_Desktop.svg;" parent="1" vertex="1">
          <mxGeometry x="960" y="390" width="52.07" height="66" as="geometry" />
        </mxCell>
        <mxCell id="MEHSV4zgcUvzOmV2rdXF-82" value="Web Server" style="image;points=[];aspect=fixed;html=1;align=center;shadow=0;dashed=0;image=img/lib/allied_telesis/computer_and_terminals/Server_Desktop.svg;" parent="1" vertex="1">
          <mxGeometry x="350" y="519" width="52.07" height="66" as="geometry" />
        </mxCell>
        <mxCell id="Ju0tz5VagtQAyM3Ogj2z-5" value="" style="rounded=0;whiteSpace=wrap;html=1;fillColor=none;strokeWidth=5;" vertex="1" parent="1">
          <mxGeometry x="240" y="70" width="380" height="360" as="geometry" />
        </mxCell>
        <mxCell id="Ju0tz5VagtQAyM3Ogj2z-6" value="Backup Database Server" style="text;html=1;strokeColor=none;fillColor=none;align=center;verticalAlign=middle;whiteSpace=wrap;rounded=0;strokeWidth=5;" vertex="1" parent="1">
          <mxGeometry x="100" y="110" width="60" height="30" as="geometry" />
        </mxCell>
      </root>
    </mxGraphModel>
  </diagram>
</mxfile>
